<?xml version="1.0" encoding="utf-8"?>
<!-- Generator: Adobe Illustrator 26.0.3, SVG Export Plug-In . SVG Version: 6.00 Build 0)  -->
<svg version="1.1" id="圖層_1" xmlns="http://www.w3.org/2000/svg" xmlns:xlink="http://www.w3.org/1999/xlink" x="0px" y="0px"
	 viewBox="0 0 116 28" style="enable-background:new 0 0 116 28;" xml:space="preserve">
<style type="text/css">
	.st0{fill:#C8102E;}
	.st1{fill:#FFFFFF;}
</style>
<g>
	<g>
		<g>
			<polygon class="st0" points="22.6,5.2 22.6,22.8 4.9,22.8 9.9,27.7 27.5,27.7 27.5,10.1 			"/>
			<polygon class="st0" points="4.9,12.1 15.7,12.1 15.7,16 8.5,16 11.5,18.9 18.7,18.9 18.7,9.1 4.9,9.1 4.9,5.2 22.6,5.2 
				17.6,0.3 0,0.3 0,17.9 4.9,22.8 			"/>
		</g>
		<g>
			<polygon class="st1" points="22.6,5.2 4.9,5.2 4.9,9.1 18.7,9.1 18.7,18.9 11.5,18.9 8.5,16 15.7,16 15.7,12.1 4.9,12.1 
				4.9,22.8 22.6,22.8 			"/>
			<polygon class="st1" points="4.9,22.8 4.9,22.8 4.9,22.8 			"/>
		</g>
	</g>
	<g>
		<g>
			<path d="M79.1,24v-2.1c-0.7,1-2.4,2.3-4.5,2.3c-2.1,0-4.2-1-5.1-3c-0.3-0.6-0.5-1.4-0.5-2.1c0-3.1,2.1-5,6.1-5h4
				c0,0,0.1-0.7-0.2-1.3c-0.4-0.8-1.1-1.1-1.9-1.2c-0.4-0.1-0.9-0.1-1.3-0.1c-1.1,0-2.2,0.3-3.2,0.6c-0.2,0.1-0.5,0.2-0.7,0.3
				c-0.3,0.1-0.3,0.1-0.3,0.1c0,0-1.7-2.9-1.7-2.9c1.8-0.9,4.2-1.9,6.6-1.9c2,0,3.5,0.5,4.8,1.6c1.4,1.1,2,2.9,2,4.7v10H79.1z
				 M79.1,17.1c0,0-2.9,0-2.9,0c-0.6,0-1.2,0-1.7,0.3c-0.9,0.4-1.2,1.4-0.8,2.2c0.1,0.1,0.1,0.2,0.2,0.3c0.4,0.5,0.9,0.7,1.5,0.7
				c0.1,0,0.2,0,0.3,0c1,0,1.9-0.4,2.6-0.8c0.6-0.4,0.8-0.8,0.8-1.3V17.1z"/>
		</g>
		<g>
			<path d="M111.7,24v-2.1c-0.7,1-2.4,2.3-4.5,2.3c-2.1,0-4.2-1-5.1-3c-0.3-0.6-0.5-1.4-0.5-2.1c0-3.1,2.1-5,6.1-5h4
				c0,0,0.1-0.7-0.2-1.3c-0.4-0.8-1.1-1.1-1.9-1.2c-0.4-0.1-0.9-0.1-1.3-0.1c-1.1,0-2.2,0.3-3.2,0.6c-0.2,0.1-0.5,0.2-0.7,0.3
				c-0.3,0.1-0.3,0.1-0.3,0.1c0,0-1.7-2.9-1.7-2.9c1.8-0.9,4.2-1.9,6.6-1.9c2,0,3.5,0.5,4.8,1.6c1.4,1.1,2,2.9,2,4.7v10H111.7z
				 M111.7,17.1c0,0-2.9,0-2.9,0c-0.6,0-1.2,0-1.7,0.3c-0.9,0.4-1.2,1.4-0.8,2.2c0.1,0.1,0.1,0.2,0.2,0.3c0.4,0.5,0.9,0.7,1.5,0.7
				c0.1,0,0.2,0,0.3,0c1,0,1.9-0.4,2.6-0.8c0.6-0.4,0.8-0.8,0.8-1.3V17.1z"/>
		</g>
		<g>
			<path d="M45.1,24v-2.1c-0.7,1-2.4,2.3-4.5,2.3c-2.1,0-4.2-1-5.1-3c-0.3-0.6-0.5-1.4-0.5-2.1c0-3.1,2.1-5,6.1-5h4
				c0,0,0.1-0.7-0.2-1.3c-0.4-0.8-1.1-1.1-1.9-1.2c-0.4-0.1-0.9-0.1-1.3-0.1c-1.1,0-2.2,0.3-3.2,0.6c-0.2,0.1-0.5,0.2-0.7,0.3
				c-0.3,0.1-0.3,0.1-0.3,0.1c0,0-1.7-2.9-1.7-2.9c1.8-0.9,4.2-1.9,6.6-1.9c2,0,3.5,0.5,4.8,1.6c1.4,1.1,2,2.9,2,4.7v10H45.1z
				 M45.1,17.1c0,0-2.9,0-2.9,0c-0.6,0-1.2,0-1.7,0.3c-0.9,0.4-1.2,1.4-0.8,2.2c0.1,0.1,0.1,0.2,0.2,0.3c0.4,0.5,0.9,0.7,1.5,0.7
				c0.1,0,0.2,0,0.3,0c1,0,1.9-0.4,2.6-0.8c0.6-0.4,0.8-0.8,0.8-1.3V17.1z"/>
		</g>
		<g>
			<path d="M92.5,24.1c-2.8,0-5.1-0.8-6-1.2l0.8-3.6c1.5,0.7,3,0.9,4.6,0.9c1.4,0,2-0.4,2-1c0-1-1.1-1.4-1.8-1.7
				c-1.9-0.8-4-1.4-4.7-3.6c-0.4-1.3-0.2-2.8,0.6-3.9c1.2-1.6,3.4-2.2,5.4-2.2c1.6,0,4.1,0.7,5.4,1.4l-0.9,3
				c-0.9-0.4-2.6-1.1-4.1-1.1c-0.6,0-1.2,0.1-1.6,0.5c-0.2,0.2-0.3,0.4-0.3,0.7c0,0.9,1.2,1.2,1.8,1.4c1.3,0.4,2.5,0.9,3.6,1.8
				c1,0.9,1.6,2,1.7,3.4c0,0.1,0,0.2,0,0.2C98.8,21.8,96.7,24.1,92.5,24.1z"/>
		</g>
		<polygon points="67.2,24 61.5,15.5 67.1,9.6 61.5,9.6 57.7,13.6 57.7,2.5 53.3,2.5 53.3,24 57.7,24 57.7,17.4 62.3,24 		"/>
	</g>
</g>
</svg>
